<!DOCTYPE svg PUBLIC "-//W3C//DTD SVG 1.1//EN" "http://www.w3.org/Graphics/SVG/1.1/DTD/svg11.dtd">
<!-- Uploaded to: SVG Repo, www.svgrepo.com, Transformed by: SVG Repo Mixer Tools -->
<svg width="90px" height="90px" viewBox="-5.04 -5.04 34.08 34.08" xmlns="http://www.w3.org/2000/svg" fill="none">
<g id="SVGRepo_bgCarrier" stroke-width="0"/>
<g id="SVGRepo_tracerCarrier" stroke-linecap="round" stroke-linejoin="round"/>
<g id="SVGRepo_iconCarrier"> <path stroke="#009cde" stroke-linecap="round" stroke-linejoin="round" stroke-width="2.016" d="m21 17-3.293-3.293a1 1 0 0 0-1.414 0l-.586.586a1 1 0 0 1-1.414 0l-2.879-2.879a2 2 0 0 0-2.828 0L3 17M21 5v14a1 1 0 0 1-1 1H4a1 1 0 0 1-1-1V5a1 1 0 0 1 1-1h16a1 1 0 0 1 1 1Zm-5 3a1 1 0 1 1-2 0 1 1 0 0 1 2 0Z"/> </g>
</svg>